# xmcd
#
# Track frame offsets: 
#        150
#        24300
#        44963
#        68783
#        91198
#        113118
#        136078
#        156643
#        173003
#        196735
#
# Disc length: 2966 seconds
#
# Revision: 0
# Processed by: cddbd v1.5.2PL0 Copyright (c) Steve Scherf et al.
# Submitted via: ExactAudioCopy v1.0b3
#
DISCID=820b940a
DTITLE=Son Tuyen - Loan Mat Nhung
DYEAR=1992
DGENRE=
TTITLE0=Dem buon tinh le
TTITLE1=Co lai do ben Ha
TTITLE2=Loan mat nhung
TTITLE3=Chuyen tau hoang hon
TTITLE4=Con duong xua em di
TTITLE5=Tinh chet theo mua dong
TTITLE6=Canh buom chuyen ben
TTITLE7=Chuyen tinh nguoi trinh nu ten Thi
TTITLE8=Noi buon sa mac
TTITLE9=Mua Xuan la kho
EXTD=
EXTT0=
EXTT1=
EXTT2=
EXTT3=
EXTT4=
EXTT5=
EXTT6=
EXTT7=
EXTT8=
EXTT9=
PLAYORDER=
